<svg width="16" height="17" viewBox="0 0 16 17" fill="none" xmlns="http://www.w3.org/2000/svg">
<path d="M14.6667 8.50001C14.6667 12.1819 11.6819 15.1667 8 15.1667C4.3181 15.1667 1.33334 12.1819 1.33334 8.50001C1.33334 4.81811 4.3181 1.83334 8 1.83334C11.6819 1.83334 14.6667 4.81811 14.6667 8.50001Z" fill="#00BB9A"/>
<path d="M10.6869 6.47979C10.8821 6.67505 10.8821 6.99164 10.6869 7.18688L7.35354 10.5202C7.15827 10.7155 6.84174 10.7155 6.64645 10.5202L5.31312 9.18688C5.11786 8.99161 5.11786 8.67508 5.31312 8.47981C5.50838 8.28454 5.82496 8.28454 6.02022 8.47981L7 9.45954L8.48987 7.96968L9.9798 6.47979C10.1751 6.28453 10.4916 6.28453 10.6869 6.47979Z" fill="#EAF4FF"/>
</svg>
